<?xml version="1.0" standalone="no"?>
<!DOCTYPE svg PUBLIC "-//W3C//DTD SVG 20010904//EN"
 "http://www.w3.org/TR/2001/REC-SVG-20010904/DTD/svg10.dtd">
<svg version="1.0" xmlns="http://www.w3.org/2000/svg"
 width="813.000000pt" height="500.000000pt" viewBox="0 0 813.000000 500.000000"
 preserveAspectRatio="xMidYMid meet">

<g transform="translate(0.000000,500.000000) scale(0.100000,-0.100000)"
fill="#000000" stroke="none">
<path d="M2260 3711 l0 -101 36 0 c19 0 44 -4 54 -10 17 -9 20 -4 30 48 7 31
16 75 20 97 5 22 6 43 2 46 -4 4 -37 10 -74 14 l-68 7 0 -101z"/>
<path d="M1880 3758 c-36 -11 -66 -21 -68 -23 -2 -2 66 -166 72 -172 1 -2 26
4 55 13 46 13 52 18 48 37 -3 12 -11 52 -17 90 -7 37 -15 69 -19 71 -3 2 -35
-5 -71 -16z"/>
<path d="M2471 3708 c-7 -40 -14 -83 -17 -95 -5 -18 1 -23 47 -37 29 -8 54
-14 55 -13 6 5 74 171 71 173 -2 2 -137 44 -142 44 -1 0 -7 -33 -14 -72z"/>
<path d="M2092 3603 c-19 -4 -23 -9 -19 -26 3 -12 11 -50 18 -84 l12 -63 38 0
39 0 0 90 0 90 -32 -1 c-18 -1 -44 -4 -56 -6z"/>
<path d="M1483 3549 c-29 -22 -53 -46 -53 -53 0 -21 258 -258 272 -250 53 30
54 27 -49 178 -52 77 -101 146 -107 153 -8 9 -23 3 -63 -28z"/>
<path d="M2888 3572 c-8 -9 -33 -44 -55 -77 l-41 -61 38 -32 c21 -18 42 -32
47 -32 5 0 37 29 72 64 72 72 72 71 -2 124 -42 29 -45 30 -59 14z"/>
<path d="M2621 3512 c-5 -10 -18 -40 -29 -67 -11 -28 -23 -58 -27 -67 -5 -12
1 -21 24 -32 16 -9 32 -16 35 -16 13 0 98 139 91 149 -3 6 -24 20 -45 31 -38
19 -40 19 -49 2z"/>
<path d="M2260 3351 c0 -70 2 -79 20 -84 15 -4 21 1 25 16 33 148 33 147 -10
147 l-35 0 0 -79z"/>
<path d="M1988 3398 c-16 -5 -28 -13 -28 -16 0 -20 110 -267 120 -270 8 -3 10
3 7 14 -3 11 -18 79 -33 152 -15 72 -30 132 -33 131 -3 0 -18 -5 -33 -11z"/>
<path d="M4655 3396 c-25 -18 -15 -51 15 -51 20 0 26 6 28 26 4 31 -18 44 -43
25z"/>
<path d="M5260 3395 c0 -8 9 -15 19 -15 10 0 22 -7 25 -16 7 -19 8 -124 1
-124 -3 0 -14 9 -25 20 -29 29 -100 27 -135 -2 -56 -49 -59 -206 -5 -260 39
-39 110 -40 145 -2 l23 25 4 -23 c3 -20 10 -23 51 -26 51 -3 61 8 22 26 l-25
12 0 200 0 200 -50 0 c-38 0 -50 -4 -50 -15z m13 -165 c47 -37 45 -194 -3
-220 -54 -29 -103 1 -115 70 -21 125 44 208 118 150z"/>
<path d="M5946 3402 c-12 -11 -5 -21 17 -24 20 -3 23 -10 27 -71 3 -37 3 -67
2 -67 -2 0 -15 9 -29 20 -49 38 -126 22 -158 -33 -23 -39 -26 -147 -6 -195 26
-62 120 -84 166 -38 25 25 35 24 35 -6 0 -15 8 -18 45 -18 50 0 58 11 20 28
l-25 11 -2 198 -3 198 -42 1 c-23 1 -44 0 -47 -4z m14 -172 c26 -26 33 -59 28
-132 -4 -48 -9 -65 -27 -79 -34 -28 -75 -24 -101 9 -19 24 -21 37 -18 105 3
68 6 82 27 98 30 24 66 24 91 -1z"/>
<path d="M3738 3364 c-34 -18 -48 -43 -48 -87 0 -48 29 -80 110 -123 80 -42
100 -75 75 -124 -30 -58 -124 -48 -145 16 -13 37 -21 42 -40 19 -34 -40 26
-95 104 -95 69 0 114 22 132 66 29 70 -5 122 -112 169 -54 24 -74 47 -74 87 0
39 22 60 65 62 34 1 42 -3 60 -31 21 -33 39 -41 50 -22 12 19 -4 55 -30 67
-36 16 -114 14 -147 -4z"/>
<path d="M1847 3344 c-15 -8 -27 -18 -27 -23 0 -6 68 -109 84 -128 2 -2 10 3
20 10 17 12 16 17 -9 80 -15 37 -30 69 -34 71 -3 2 -18 -2 -34 -10z"/>
<path d="M4043 3259 c-38 -24 -53 -63 -53 -136 0 -98 46 -153 128 -153 94 0
132 44 132 153 0 79 -17 120 -60 142 -41 21 -109 19 -147 -6z m135 -35 c18
-21 22 -37 22 -95 0 -86 -18 -125 -60 -134 -42 -9 -76 15 -89 62 -40 143 46
255 127 167z"/>
<path d="M4384 3261 c-38 -23 -54 -65 -54 -138 0 -67 23 -119 61 -138 57 -30
159 -10 159 31 0 13 -4 13 -30 -1 -41 -21 -75 -19 -106 8 -53 46 -43 207 14
228 30 11 72 -2 72 -23 0 -23 16 -39 33 -32 24 9 21 50 -5 68 -31 22 -106 20
-144 -3z"/>
<path d="M4600 3270 c0 -6 11 -15 25 -20 25 -9 25 -11 25 -125 l0 -116 -30
-13 c-45 -18 -26 -26 62 -26 81 0 99 11 48 29 l-30 10 0 135 0 136 -50 0 c-27
0 -50 -5 -50 -10z"/>
<path d="M4845 3258 c-35 -27 -55 -75 -55 -133 0 -94 49 -155 126 -155 52 0
92 14 100 35 10 24 -2 29 -28 11 -48 -34 -111 -15 -134 39 -26 63 -24 64 84
67 l97 3 -3 35 c-1 19 -7 47 -13 61 -23 57 -121 79 -174 37z m119 -30 c9 -12
16 -35 16 -50 0 -28 0 -28 -70 -28 l-70 0 6 28 c12 51 32 72 69 72 24 0 39 -7
49 -22z"/>
<path d="M5502 3264 c-27 -19 -29 -50 -3 -63 21 -12 31 -5 31 21 0 27 43 44
75 30 21 -10 25 -18 25 -55 l0 -44 -58 -7 c-66 -7 -99 -26 -113 -63 -12 -32 5
-89 31 -103 34 -18 87 -11 119 15 l30 26 3 -23 c2 -19 10 -24 41 -26 37 -3 49
10 23 25 -11 6 -15 37 -18 121 -3 110 -4 114 -31 138 -34 29 -119 34 -155 8z
m128 -179 c0 -32 -6 -51 -20 -65 -22 -22 -69 -27 -88 -8 -13 13 -16 66 -4 85
10 16 51 32 85 32 26 1 27 -1 27 -44z"/>
<path d="M2140 3256 c0 -26 23 -121 32 -130 4 -6 8 25 8 67 0 70 -2 77 -20 77
-11 0 -20 -6 -20 -14z"/>
<path d="M2601 3149 c-46 -66 -80 -123 -76 -127 3 -3 54 42 112 100 106 106
107 107 88 128 -10 11 -23 20 -30 20 -7 0 -49 -54 -94 -121z"/>
<path d="M2467 3143 c-15 -37 -24 -69 -22 -71 6 -6 4 -9 48 57 27 41 34 58 25
68 -18 22 -24 16 -51 -54z"/>
<path d="M2747 3123 c-53 -54 -56 -60 -41 -75 15 -15 21 -13 80 25 35 23 64
44 64 47 0 3 -10 18 -23 33 l-22 28 -58 -58z"/>
<path d="M1383 3138 c-14 -18 -45 -79 -41 -82 2 -1 72 -30 157 -65 120 -49
156 -59 162 -49 5 7 8 18 8 23 0 8 -241 172 -269 183 -4 1 -12 -3 -17 -10z"/>
<path d="M2972 3106 c-80 -55 -76 -50 -56 -83 10 -15 19 -29 19 -30 2 -3 157
58 165 64 8 7 -42 93 -54 92 -6 0 -39 -20 -74 -43z"/>
<path d="M1820 3130 c-12 -8 -6 -19 37 -62 29 -29 55 -49 59 -46 6 6 -66 117
-76 117 -3 1 -12 -4 -20 -9z"/>
<path d="M1105 2998 c-10 -35 -19 -67 -19 -72 -1 -8 185 -51 188 -44 25 67 32
99 22 106 -6 5 -42 21 -81 37 -38 15 -75 29 -81 32 -6 2 -19 -24 -29 -59z"/>
<path d="M3225 3025 c-44 -18 -81 -39 -83 -47 -4 -19 23 -93 34 -93 5 0 46 6
92 14 62 10 82 17 82 29 0 24 -32 132 -39 131 -3 0 -42 -16 -86 -34z"/>
<path d="M1466 2894 c-18 -47 -13 -50 144 -81 86 -17 149 -26 147 -20 -3 11
-252 117 -273 117 -6 0 -15 -7 -18 -16z"/>
<path d="M5542 2871 c-8 -4 -12 -19 -10 -32 2 -18 9 -24 28 -24 28 0 39 27 20
50 -14 17 -20 18 -38 6z"/>
<path d="M2741 2827 c-80 -33 -77 -49 6 -30 78 18 77 17 70 38 -8 19 -11 19
-76 -8z"/>
<path d="M3802 2833 c-5 -10 -37 -94 -73 -187 -51 -134 -68 -170 -86 -177 -38
-14 -26 -19 47 -19 65 0 98 15 48 22 -29 4 -33 24 -13 71 l15 37 79 0 78 0 13
-44 c13 -46 8 -66 -15 -66 -8 0 -17 -4 -20 -10 -4 -6 23 -10 74 -10 47 0 81 4
81 10 0 6 -9 10 -19 10 -15 0 -32 35 -88 188 -58 154 -74 188 -91 190 -12 2
-24 -4 -30 -15z m48 -128 c13 -38 25 -76 28 -82 3 -10 -13 -13 -63 -13 -60 0
-66 2 -60 18 4 9 19 50 33 90 14 40 28 69 32 65 4 -4 18 -39 30 -78z"/>
<path d="M5322 2790 c-6 -16 -22 -35 -36 -42 -31 -13 -34 -28 -7 -28 17 0 19
-10 22 -118 3 -81 8 -124 18 -135 16 -19 71 -32 100 -22 33 10 25 23 -16 27
-33 3 -38 7 -46 37 -4 18 -7 72 -5 120 l3 86 38 3 c23 2 37 8 37 17 0 9 -14
15 -37 17 -21 2 -39 9 -39 16 -1 6 -2 21 -3 32 -2 30 -18 24 -29 -10z"/>
<path d="M1257 2764 c-13 -77 -17 -74 83 -74 89 0 90 0 90 24 0 13 3 31 6 39
5 15 -29 26 -134 43 -39 6 -39 6 -45 -32z"/>
<path d="M2990 2768 c-80 -16 -146 -31 -147 -32 -1 -1 0 -12 4 -24 5 -22 9
-22 169 -22 98 0 165 4 169 10 3 6 3 30 -1 55 -8 54 2 54 -194 13z"/>
<path d="M4525 2756 c-13 -9 -37 -12 -79 -9 -55 5 -64 3 -88 -20 -36 -34 -40
-105 -7 -138 21 -21 21 -23 5 -51 -16 -26 -16 -31 -2 -52 14 -22 13 -24 -10
-35 -54 -24 -53 -105 2 -130 58 -26 179 -5 210 37 20 25 17 86 -5 113 -16 20
-30 24 -95 27 -63 4 -76 7 -76 21 0 27 21 41 61 41 55 0 93 36 93 86 -1 22 -4
49 -9 62 -6 18 -4 22 13 22 12 0 24 -5 27 -10 9 -15 25 -2 25 20 0 16 -18 30
-39 30 -4 0 -16 -6 -26 -14z m-56 -40 c7 -8 15 -30 18 -50 11 -67 -44 -110
-89 -69 -20 18 -25 82 -8 114 13 23 62 26 79 5z m42 -276 c38 -21 18 -81 -32
-99 -74 -26 -129 -3 -129 54 0 22 6 38 18 44 22 14 118 14 143 1z"/>
<path d="M6633 2759 c9 -5 17 -21 17 -34 0 -43 -8 -51 -48 -47 -71 7 -132 -69
-132 -162 0 -37 4 -48 25 -62 29 -19 57 -12 84 22 21 26 36 32 28 10 -10 -25
16 -48 46 -41 37 10 44 25 13 25 -17 0 -26 6 -26 15 0 16 46 236 56 268 5 14
-1 17 -38 17 -34 -1 -39 -3 -25 -11z m-3 -114 c0 -80 -53 -179 -94 -173 -40 6
-33 106 10 158 28 33 84 43 84 15z"/>
<path d="M5836 2749 c-15 -4 -36 -15 -46 -24 -17 -15 -19 -15 -25 4 -5 17 -15
21 -51 21 -48 0 -57 -10 -21 -25 21 -10 22 -15 22 -130 0 -117 -1 -120 -22
-123 -13 -2 -23 -8 -23 -13 0 -5 34 -9 75 -9 43 0 75 4 75 10 0 6 -9 10 -20
10 -26 0 -33 31 -29 129 5 93 22 121 75 121 54 0 64 -26 64 -157 l0 -113 51 0
c31 0 48 4 44 10 -3 6 -13 10 -20 10 -19 0 -24 25 -27 142 -3 106 -10 122 -63
137 -17 4 -43 4 -59 0z"/>
<path d="M4060 2742 c0 -4 10 -12 23 -17 20 -9 22 -17 25 -110 3 -120 -1 -145
-28 -145 -11 0 -20 -4 -20 -10 0 -6 33 -10 80 -10 44 0 80 4 80 9 0 5 -12 11
-27 13 -28 3 -28 3 -31 88 -2 65 2 93 15 120 22 42 61 54 70 20 4 -14 12 -20
27 -18 16 2 21 10 21 33 0 29 -2 30 -46 33 -40 3 -50 -1 -67 -22 -25 -32 -32
-33 -32 -1 0 23 -4 25 -45 25 -25 0 -45 -3 -45 -8z"/>
<path d="M4661 2734 c-32 -23 -51 -73 -51 -136 0 -102 59 -164 148 -155 43 5
82 29 82 52 0 9 -13 6 -40 -7 -70 -35 -130 -2 -134 74 l-1 33 93 3 92 3 0 35
c0 41 -14 72 -44 96 -28 23 -113 24 -145 2z m113 -23 c9 -10 20 -35 23 -55 l6
-36 -66 0 c-36 0 -68 4 -71 8 -9 15 14 81 32 91 27 16 57 13 76 -8z"/>
<path d="M4910 2740 c0 -5 7 -10 15 -10 24 0 35 -44 35 -136 0 -93 -10 -124
-40 -124 -11 0 -20 -4 -20 -10 0 -6 34 -10 81 -10 51 0 78 4 74 10 -3 6 -13
10 -21 10 -25 0 -36 50 -29 130 8 94 24 120 70 120 58 0 65 -16 65 -151 l0
-119 50 0 c28 0 50 5 50 10 0 6 -7 10 -15 10 -25 0 -35 36 -35 133 0 80 -3 98
-21 121 -17 22 -29 26 -68 26 -35 0 -53 -5 -66 -20 -10 -11 -22 -20 -27 -20
-4 0 -8 9 -8 20 0 17 -7 20 -45 20 -25 0 -45 -4 -45 -10z"/>
<path d="M5490 2740 c0 -5 7 -10 15 -10 25 0 35 -36 35 -130 0 -93 -10 -130
-35 -130 -7 0 -17 -4 -20 -10 -4 -6 23 -10 74 -10 45 0 81 4 81 9 0 5 -10 11
-22 13 -22 3 -23 6 -26 141 l-3 137 -49 0 c-28 0 -50 -4 -50 -10z"/>
<path d="M6102 2734 c-26 -18 -29 -49 -6 -58 26 -10 34 -7 34 12 0 26 20 42
51 42 34 0 49 -19 56 -68 l5 -39 -61 -5 c-81 -6 -115 -30 -119 -85 -4 -58 23
-88 81 -88 34 0 52 6 72 25 l26 24 6 -22 c4 -18 12 -22 47 -22 41 0 41 1 19
18 -19 15 -22 28 -25 130 -3 106 -5 115 -27 133 -30 24 -126 26 -159 3z m138
-158 c0 -44 -21 -84 -50 -96 -37 -15 -68 -5 -76 26 -15 58 17 92 89 93 32 1
37 -2 37 -23z"/>
<path d="M6769 2641 c-68 -72 -63 -170 11 -192 30 -9 42 -8 68 5 18 9 32 21
32 27 0 6 -6 6 -19 -1 -36 -19 -80 -12 -93 14 -16 36 -5 52 42 59 69 9 113 61
85 103 -12 18 -24 24 -52 24 -29 0 -43 -8 -74 -39z m91 -9 c0 -33 -23 -57 -62
-67 -30 -8 -34 -1 -19 38 23 59 81 80 81 29z"/>
<path d="M1440 2580 c0 -37 2 -40 23 -35 28 7 269 55 273 55 2 0 4 5 4 10 0 6
-57 10 -150 10 l-150 0 0 -40z"/>
<path d="M2696 2611 c-3 -5 56 -20 132 -35 75 -15 145 -29 155 -32 14 -5 17 1
17 35 l0 40 -150 0 c-82 0 -152 -3 -154 -8z"/>
<path d="M3195 2608 c-2 -7 -5 -34 -8 -59 l-4 -46 90 -17 c49 -9 92 -14 95
-11 8 8 21 128 16 137 -9 14 -184 9 -189 -4z"/>
<path d="M2822 2469 c2 -15 20 -28 62 -45 33 -13 65 -24 72 -24 13 0 37 57 26
64 -10 6 -122 26 -145 26 -13 0 -17 -6 -15 -21z"/>
<path d="M1245 2425 c-88 -18 -160 -37 -159 -41 4 -38 40 -134 48 -131 259
104 322 130 329 136 4 4 4 22 1 39 -8 40 -9 40 -219 -3z"/>
<path d="M1635 2374 c-88 -36 -189 -77 -225 -91 -36 -15 -66 -27 -68 -29 -5
-3 37 -82 47 -89 8 -4 195 115 405 257 6 4 8 9 5 12 -3 3 -77 -24 -164 -60z"/>
<path d="M2590 2352 c0 -4 49 -56 109 -116 l108 -108 23 32 c12 17 21 32 19
34 -15 12 -250 166 -254 166 -3 0 -5 -3 -5 -8z"/>
<path d="M4142 2310 c-24 -10 -52 -64 -52 -100 0 -15 -7 -20 -25 -20 -16 0
-25 -6 -25 -15 0 -9 9 -15 25 -15 l25 0 0 -120 c0 -119 0 -121 -25 -132 -44
-20 -27 -28 60 -28 50 0 85 4 85 10 0 6 -9 10 -19 10 -42 0 -51 24 -51 146 l0
114 40 0 c29 0 40 4 40 15 0 11 -11 15 -40 15 -39 0 -40 1 -40 34 0 45 29 81
58 72 11 -4 24 -16 27 -27 5 -15 10 -17 26 -9 64 35 -35 79 -109 50z"/>
<path d="M6756 2280 c-29 -44 -31 -50 -16 -50 13 0 90 70 90 81 0 5 -11 9 -24
9 -16 0 -31 -12 -50 -40z"/>
<path d="M4790 2300 c0 -5 9 -10 20 -10 33 0 40 -33 40 -187 0 -171 -4 -191
-36 -199 -49 -12 -22 -24 56 -24 78 0 105 12 55 24 l-25 6 0 200 0 200 -55 0
c-30 0 -55 -4 -55 -10z"/>
<path d="M5855 2300 c3 -5 14 -10 25 -10 10 0 21 -7 24 -16 3 -9 6 -89 6 -179
0 -135 -3 -166 -16 -179 -8 -9 -22 -16 -30 -16 -8 0 -12 -4 -9 -10 7 -12 155
-14 155 -2 0 5 -11 14 -25 20 l-25 12 0 195 0 195 -56 0 c-34 0 -53 -4 -49
-10z"/>
<path d="M3740 2279 c-68 -27 -106 -110 -98 -214 7 -75 30 -128 72 -158 26
-18 44 -22 109 -22 l78 0 39 41 c46 50 64 108 57 186 -6 73 -41 134 -89 159
-41 21 -126 25 -168 8z m136 -28 c47 -28 68 -92 62 -185 -6 -94 -29 -136 -84
-155 -37 -13 -44 -12 -80 5 -56 27 -69 61 -69 176 0 82 3 101 21 125 40 54 96
67 150 34z"/>
<path d="M1653 2237 c-35 -23 -63 -45 -63 -48 0 -4 10 -19 21 -33 l22 -28 58
58 c50 49 56 59 46 75 -7 11 -14 19 -17 18 -3 0 -33 -19 -67 -42z"/>
<path d="M4322 2227 c-7 -20 -24 -39 -40 -47 l-27 -13 25 -6 c25 -7 25 -8 28
-126 3 -143 10 -155 84 -155 35 0 48 4 48 14 0 9 -7 12 -19 9 -10 -3 -28 0
-40 6 -20 11 -21 20 -21 131 l0 120 35 0 c26 0 35 4 35 16 0 13 -8 15 -35 12
-33 -4 -34 -2 -37 31 -4 46 -21 49 -36 8z"/>
<path d="M3078 2201 l-27 -49 80 -53 c89 -58 81 -60 125 25 14 27 22 52 17 56
-7 6 -157 70 -165 70 -2 0 -15 -22 -30 -49z"/>
<path d="M1947 2184 c-29 -44 -34 -60 -26 -70 18 -22 25 -17 47 39 11 28 23
60 27 70 15 37 -12 14 -48 -39z"/>
<path d="M6575 2190 c-3 -5 -32 -7 -68 -3 -54 4 -66 2 -89 -16 -47 -37 -46
-133 1 -161 15 -9 14 -11 -1 -20 -20 -12 -25 -65 -7 -76 6 -4 -2 -17 -21 -33
-42 -34 -44 -75 -6 -108 15 -13 35 -23 44 -24 9 0 26 -2 37 -4 36 -7 112 16
135 40 16 17 22 35 22 67 -1 60 -26 78 -106 78 -33 0 -67 4 -74 9 -18 11 -11
45 8 48 105 13 140 38 140 98 0 20 -5 45 -10 55 -12 22 6 38 23 21 19 -19 37
-12 37 14 0 21 -5 25 -29 25 -17 0 -32 -4 -36 -10z m-55 -40 c13 -13 20 -33
20 -56 0 -54 -15 -74 -56 -74 -28 0 -36 5 -45 28 -21 53 6 122 48 122 7 0 22
-9 33 -20z m34 -270 c19 -7 26 -17 26 -37 0 -16 -4 -33 -8 -39 -23 -35 -111
-46 -150 -18 -32 22 -27 74 8 91 30 15 89 17 124 3z"/>
<path d="M1750 2135 c-53 -53 -53 -55 -35 -75 10 -11 23 -20 30 -20 6 0 30 27
52 59 38 56 40 61 24 75 -16 14 -22 11 -71 -39z"/>
<path d="M2167 2183 c-11 -18 -58 -276 -53 -289 3 -8 19 -14 36 -14 l30 0 0
155 c0 145 -2 166 -13 148z"/>
<path d="M2260 2117 c0 -70 2 -77 20 -77 23 0 23 -1 9 76 -16 89 -29 90 -29 1z"/>
<path d="M2617 2176 c-16 -13 -15 -18 25 -75 23 -33 45 -61 49 -61 4 0 17 9
30 19 l24 20 -55 55 c-49 49 -57 53 -73 42z"/>
<path d="M4540 2177 c-16 -8 -25 -21 -25 -37 0 -35 32 -39 45 -6 20 52 92 42
104 -15 11 -55 9 -56 -56 -63 -70 -8 -105 -26 -118 -61 -12 -31 5 -92 30 -105
34 -18 87 -12 118 15 l30 25 6 -25 c5 -21 12 -25 41 -25 38 0 43 7 19 24 -12
9 -16 37 -19 126 -3 109 -5 116 -30 137 -30 26 -103 31 -145 10z m126 -151 c9
-23 -15 -95 -36 -106 -25 -14 -63 -13 -78 2 -18 18 -15 73 6 90 30 28 99 36
108 14z"/>
<path d="M4986 2181 c-3 -4 6 -13 20 -19 24 -12 25 -13 22 -129 -3 -111 -4
-119 -25 -128 -40 -17 -25 -25 52 -25 78 0 93 9 49 29 -26 11 -26 12 -22 112
3 92 5 103 27 120 29 24 63 24 84 1 14 -15 17 -41 17 -140 l0 -122 50 0 c28 0
50 5 50 10 0 6 -4 10 -9 10 -5 0 -17 7 -25 16 -19 18 -22 127 -5 187 13 49 49
68 87 46 26 -14 27 -17 32 -139 l5 -125 48 -3 c28 -2 47 1 47 7 0 6 -4 11 -9
11 -5 0 -17 7 -25 16 -13 12 -16 38 -16 120 0 98 -2 107 -25 129 -34 35 -96
35 -130 0 l-25 -24 -25 24 c-33 34 -94 34 -126 1 l-23 -24 -11 21 c-8 16 -21
23 -47 24 -21 1 -40 -2 -42 -6z"/>
<path d="M5614 2181 c-82 -35 -97 -200 -24 -273 24 -24 36 -28 83 -28 41 0 61
5 82 22 71 55 74 202 6 262 -24 22 -112 32 -147 17z m118 -42 c39 -45 34 -174
-8 -216 -20 -20 -32 -24 -57 -19 -44 9 -58 26 -68 82 -10 54 4 146 24 162 32
26 82 21 109 -9z"/>
<path d="M6124 2180 c-82 -33 -100 -196 -29 -267 29 -29 39 -33 88 -33 45 0
61 5 86 26 71 60 67 211 -8 261 -35 24 -96 30 -137 13z m118 -41 c38 -44 30
-187 -13 -221 -50 -41 -104 -10 -118 67 -9 47 -3 107 14 148 16 39 85 42 117
6z"/>
<path d="M6685 2181 c-3 -6 -2 -11 4 -11 5 0 17 -7 25 -16 23 -22 23 -216 0
-238 -8 -9 -22 -16 -30 -16 -8 0 -14 -4 -14 -10 0 -6 33 -10 80 -10 81 0 98 7
58 25 -22 9 -23 17 -28 145 l-5 135 -42 3 c-22 2 -44 -2 -48 -7z"/>
<path d="M6923 2179 c-25 -13 -35 -33 -27 -54 9 -22 38 -18 49 7 6 13 22 27
37 32 39 14 68 -14 68 -64 l0 -38 -57 -7 c-65 -8 -108 -26 -117 -50 -12 -32
-6 -73 15 -99 29 -36 95 -37 129 -1 29 31 38 31 42 3 2 -19 10 -24 41 -26 40
-3 48 6 18 25 -17 11 -20 27 -23 127 -4 139 -9 148 -95 153 -32 1 -68 -2 -80
-8z m127 -179 c0 -50 -35 -90 -78 -90 -35 0 -52 16 -52 50 0 36 25 68 58 73
71 11 72 10 72 -33z"/>
<path d="M2517 2109 c-22 -13 -22 -16 13 -93 l30 -67 30 16 c16 8 30 19 30 24
0 5 -63 102 -84 128 -1 1 -9 -3 -19 -8z"/>
<path d="M1356 2040 c-42 -27 -76 -55 -76 -63 0 -7 19 -34 43 -60 l42 -48 68
64 c37 34 67 66 67 70 0 6 -7 15 -51 68 -16 18 -19 18 -93 -31z"/>
<path d="M1984 1995 c-29 -69 -27 -78 17 -89 26 -6 27 -4 38 57 7 34 14 70 17
80 4 13 -1 17 -19 17 -21 0 -29 -10 -53 -65z"/>
<path d="M1764 1911 c-25 -38 -43 -74 -39 -80 3 -6 24 -20 46 -30 l40 -20 8
22 c5 12 21 48 35 81 14 32 26 60 26 62 0 4 -57 34 -64 34 -3 0 -27 -31 -52
-69z"/>
<path d="M2834 1911 l-42 -37 49 -68 c26 -38 50 -74 52 -80 4 -12 117 70 117
86 0 5 -13 21 -29 36 -15 15 -46 44 -67 64 l-39 36 -41 -37z"/>
<path d="M2675 1808 c-22 -11 -42 -22 -44 -24 -4 -4 58 -156 69 -167 11 -12
133 52 127 67 -8 21 -98 146 -105 146 -4 -1 -25 -10 -47 -22z"/>
<path d="M1850 1673 c-18 -43 -34 -83 -37 -89 -3 -8 94 -44 131 -48 8 -1 45
139 46 174 0 14 -66 40 -99 40 -4 0 -23 -35 -41 -77z"/>
<path d="M2303 1703 l-43 -4 0 -100 0 -101 68 7 c37 4 70 10 74 14 6 5 -6 77
-27 169 -3 12 -11 21 -18 20 -6 -1 -31 -3 -54 -5z"/>
</g>
</svg>
