<?xml version="1.0" standalone="no"?>
<!DOCTYPE svg PUBLIC "-//W3C//DTD SVG 20010904//EN"
 "http://www.w3.org/TR/2001/REC-SVG-20010904/DTD/svg10.dtd">
<svg version="1.0" xmlns="http://www.w3.org/2000/svg"
 width="2084.000000pt" height="2084.000000pt" viewBox="0 0 2084.000000 2084.000000"
 preserveAspectRatio="xMidYMid meet">
<metadata>
Created by potrace 1.15, written by Peter Selinger 2001-2017
</metadata>
<g transform="translate(0.000000,2084.000000) scale(0.100000,-0.100000)"
fill="#000000" stroke="none">
<path d="M10730 17711 l0 -3099 88 -9 c48 -6 89 -9 91 -7 3 3 1210 6058 1211
6075 0 13 -575 87 -845 109 -163 13 -446 30 -502 30 l-43 0 0 -3099z"/>
<path d="M7870 20504 c-285 -73 -478 -130 -775 -229 -350 -118 -376 -128 -371
-140 24 -63 671 -1621 673 -1624 2 -3 106 29 231 71 237 80 427 137 647 193
88 23 129 38 128 47 -6 36 -335 1696 -339 1711 -6 21 15 24 -194 -29z"/>
<path d="M12581 19689 c-95 -474 -170 -867 -167 -874 2 -7 21 -16 41 -19 95
-18 465 -126 698 -203 141 -47 259 -84 261 -82 8 8 678 1631 674 1634 -7 7
-365 132 -508 177 -206 65 -504 150 -665 188 -71 17 -137 33 -146 36 -14 4
-41 -120 -188 -857z"/>
<path d="M5990 19831 c-457 -213 -1096 -567 -1087 -602 2 -9 606 -917 1342
-2018 l1337 -2001 31 19 c55 33 209 117 287 156 41 21 76 38 77 39 6 5 -1845
4460 -1853 4463 -5 1 -65 -23 -134 -56z"/>
<path d="M14667 19853 c-8 -21 -301 -728 -651 -1572 -350 -844 -635 -1535
-633 -1536 1 -2 79 -41 172 -88 94 -47 237 -124 320 -171 82 -47 152 -83 156
-78 7 8 1871 2799 1882 2819 8 13 -94 78 -383 243 -197 113 -773 404 -821 415
-23 6 -28 2 -42 -32z"/>
<path d="M9905 19039 c-262 -16 -848 -80 -864 -95 -5 -5 310 -1598 319 -1607
4 -4 76 1 161 13 127 16 491 50 545 50 12 0 14 119 14 825 0 780 -1 825 -17
824 -10 -1 -81 -6 -158 -10z"/>
<path d="M4149 18726 c-292 -220 -582 -463 -809 -674 l-65 -61 1206 -1207
1206 -1206 150 128 c82 71 208 174 281 229 72 55 131 103 131 107 1 8 -1887
2838 -1893 2838 -1 0 -94 -69 -207 -154z"/>
<path d="M15978 18167 c-261 -392 -482 -724 -492 -738 l-17 -27 113 -85 c173
-129 383 -300 544 -443 80 -71 149 -130 152 -132 4 -1 288 280 632 624 l625
625 -85 81 c-194 184 -572 497 -840 695 -74 55 -140 102 -146 106 -7 4 -198
-275 -486 -706z"/>
<path d="M2688 17393 c-159 -178 -268 -305 -403 -473 -158 -196 -346 -451
-342 -464 3 -11 1455 -987 1466 -985 4 0 40 46 81 102 108 147 290 372 421
521 63 70 125 141 138 158 l25 29 -625 625 c-343 343 -627 624 -631 624 -3 0
-62 -62 -130 -137z"/>
<path d="M8570 17175 c-69 -19 -219 -64 -333 -102 -188 -61 -208 -69 -204 -88
5 -26 1048 -2547 1058 -2559 5 -5 42 1 91 16 67 20 83 28 82 44 0 10 -121 628
-270 1372 -217 1090 -272 1352 -284 1351 -8 0 -71 -16 -140 -34z"/>
<path d="M12086 17198 c-10 -32 -277 -1391 -274 -1394 2 -2 60 -20 129 -40 68
-19 164 -48 212 -64 80 -26 89 -27 95 -12 3 10 126 307 273 662 147 354 265
648 263 652 -6 9 -351 120 -504 162 -178 48 -189 50 -194 34z"/>
<path d="M15656 15202 l-1089 -1090 64 -73 c36 -41 100 -118 143 -172 43 -55
83 -96 90 -94 20 8 2546 1698 2546 1703 0 9 -111 157 -246 326 -116 146 -247
299 -380 446 l-39 43 -1089 -1089z"/>
<path d="M13786 14888 l-777 -1163 38 -34 c21 -18 53 -45 71 -59 l33 -25 990
989 990 989 -58 54 c-100 94 -490 411 -505 411 -2 0 -354 -523 -782 -1162z"/>
<path d="M9865 15965 c-205 -21 -225 -25 -225 -43 0 -16 260 -1326 263 -1328
1 -1 41 3 90 9 l87 9 0 684 0 684 -47 -1 c-27 -1 -102 -7 -168 -14z"/>
<path d="M17821 14975 c-778 -520 -1416 -946 -1417 -948 -2 -2 35 -71 82 -153
47 -82 124 -225 171 -319 47 -93 87 -171 88 -173 1 -2 2314 954 3068 1268 49
20 77 37 77 47 0 23 -274 572 -375 753 -90 161 -244 422 -267 452 -12 16 -142
-68 -1427 -927z"/>
<path d="M12575 14803 c-143 -344 -261 -629 -262 -632 -4 -10 160 -92 168 -84
19 21 749 1124 749 1132 0 14 -362 211 -387 211 -5 0 -125 -282 -268 -627z"/>
<path d="M5129 15023 c-198 -227 -374 -453 -362 -463 24 -21 2310 -1543 2319
-1544 11 -1 114 117 114 131 0 4 -445 453 -988 996 l-989 989 -94 -109z"/>
<path d="M2962 14808 c-176 -296 -423 -781 -406 -797 10 -11 2808 -1171 2823
-1171 5 0 35 48 67 108 31 59 79 147 106 195 28 49 49 89 47 91 -7 5 -2534
1692 -2546 1699 -8 5 -38 -37 -91 -125z"/>
<path d="M6954 14798 c-44 -34 -121 -97 -172 -141 l-94 -80 484 -484 c265
-265 487 -483 491 -483 11 0 135 103 136 113 1 11 -752 1137 -760 1137 -3 0
-42 -28 -85 -62z"/>
<path d="M656 14059 c-34 -82 -141 -396 -195 -572 -88 -288 -207 -737 -194
-737 5 0 6029 -1198 6058 -1204 18 -5 23 6 46 84 18 61 23 90 15 93 -6 3
-1289 535 -2851 1182 -1562 647 -2846 1179 -2853 1182 -7 3 -18 -9 -26 -28z"/>
<path d="M19330 13755 c-443 -184 -809 -336 -815 -338 -5 -2 30 -120 77 -263
78 -232 185 -602 204 -699 3 -20 12 -39 19 -41 11 -5 1724 332 1732 340 5 5
-96 399 -151 586 -81 278 -242 750 -255 750 -3 -1 -368 -151 -811 -335z"/>
<path d="M14645 12854 c-308 -206 -560 -377 -560 -382 0 -19 81 -162 90 -158
91 36 1251 519 1254 522 12 12 -195 394 -212 393 -7 0 -264 -169 -572 -375z"/>
<path d="M15055 11985 c-335 -139 -617 -258 -625 -263 -12 -7 -11 -21 12 -93
25 -81 27 -84 53 -81 55 7 1305 259 1311 264 12 13 -115 428 -130 427 -6 0
-285 -115 -621 -254z"/>
<path d="M1865 11758 c-20 -61 -81 -646 -92 -880 l-6 -148 821 0 821 0 5 43
c3 23 10 110 15 192 6 83 21 226 32 318 12 93 20 169 18 171 -7 5 -1573 316
-1592 316 -10 0 -20 -6 -22 -12z"/>
<path d="M16745 11339 c-1182 -235 -2150 -429 -2151 -429 0 0 3 -30 7 -67 5
-38 8 -78 8 -90 l1 -23 2221 0 2220 0 -5 53 c-3 28 -8 106 -11 172 -8 154 -39
468 -67 663 -21 152 -21 152 -47 151 -14 0 -993 -194 -2176 -430z"/>
<path d="M4870 11167 c0 -8 -6 -75 -14 -149 -8 -73 -17 -168 -21 -210 l-7 -78
686 0 685 0 5 45 c3 25 8 65 11 89 5 37 3 45 -12 50 -10 3 -306 62 -658 131
-352 69 -648 128 -657 131 -12 3 -18 0 -18 -9z"/>
<path d="M5 9968 c23 -416 53 -733 101 -1068 30 -214 29 -211 57 -205 12 3
402 81 867 174 765 153 845 170 843 187 -1 11 -13 107 -27 214 -32 241 -53
469 -62 663 l-7 147 -889 0 -889 0 6 -112z"/>
<path d="M3404 10023 c3 -32 11 -121 16 -198 12 -154 48 -457 56 -464 3 -4
2379 464 2697 531 l48 10 -5 41 c-3 23 -8 63 -11 90 l-6 47 -1400 0 -1400 0 5
-57z"/>
<path d="M14609 10058 c0 -13 -3 -53 -7 -90 -7 -62 -7 -67 13 -72 146 -33
2717 -538 2721 -534 12 13 52 371 70 621 l6 97 -1401 0 -1401 0 -1 -22z"/>
<path d="M19036 10038 c-3 -24 -8 -99 -11 -168 -8 -164 -29 -378 -61 -623 -15
-114 -23 -202 -18 -206 8 -7 1726 -353 1730 -348 4 5 65 456 79 582 19 174 42
474 51 663 l7 142 -886 0 -886 0 -5 -42z"/>
<path d="M2616 8530 c-1291 -258 -2349 -470 -2351 -472 -5 -6 92 -382 150
-580 59 -201 174 -549 224 -678 18 -47 34 -74 42 -72 16 3 4449 1839 4455
1845 2 2 -5 30 -16 63 -11 33 -40 127 -64 210 -40 136 -45 149 -67 151 -13 1
-1081 -209 -2373 -467z"/>
<path d="M15785 8943 c-8 -32 -38 -128 -65 -213 -27 -85 -48 -156 -46 -157 5
-5 4470 -1853 4472 -1850 14 16 204 589 264 797 57 197 141 532 136 538 -5 5
-4712 942 -4732 942 -7 0 -20 -26 -29 -57z"/>
<path d="M4593 7652 c-1124 -466 -2043 -852 -2043 -858 0 -14 181 -378 255
-514 142 -260 229 -401 245 -397 14 4 3648 2425 3673 2447 9 8 -69 171 -81
169 -4 0 -926 -382 -2049 -847z"/>
<path d="M14122 8419 c-24 -45 -42 -82 -40 -84 15 -12 1123 -748 1132 -751 18
-7 228 377 214 391 -5 5 -1255 525 -1261 525 -1 0 -21 -37 -45 -81z"/>
<path d="M4512 6083 c-1414 -945 -2572 -1723 -2572 -1729 0 -13 253 -350 391
-520 97 -119 325 -382 437 -504 l51 -55 2190 2190 c1205 1204 2191 2194 2191
2199 0 9 -98 129 -109 134 -4 1 -1164 -771 -2579 -1715z"/>
<path d="M13675 7749 c-22 -28 -46 -60 -54 -71 -14 -18 78 -112 1550 -1584
860 -860 1569 -1563 1575 -1562 29 7 355 390 546 641 101 133 118 161 107 172
-22 21 -3668 2455 -3676 2455 -5 -1 -26 -24 -48 -51z"/>
<path d="M13105 7172 c-17 -15 -45 -39 -64 -55 l-33 -27 772 -1158 c425 -636
776 -1161 780 -1165 11 -12 268 189 484 378 l88 78 -988 988 c-544 544 -993
989 -999 989 -5 0 -24 -13 -40 -28z"/>
<path d="M18158 6602 c-107 -217 -208 -404 -323 -598 -42 -70 -74 -128 -73
-129 28 -23 1457 -969 1468 -972 16 -4 157 226 315 512 113 206 336 661 338
691 2 25 -23 36 -803 360 -443 183 -809 334 -815 334 -5 0 -54 -89 -107 -198z"/>
<path d="M7960 6169 c-206 -308 -376 -565 -378 -572 -3 -16 382 -226 394 -214
4 4 524 1256 524 1263 0 4 -156 84 -162 84 -2 -1 -172 -253 -378 -561z"/>
<path d="M12388 6687 l-76 -42 1185 -2863 c1106 -2670 1187 -2862 1207 -2856
43 13 508 244 671 333 264 145 544 314 538 326 -26 46 -3437 5145 -3442 5145
-3 0 -41 -19 -83 -43z"/>
<path d="M6187 5732 l-508 -508 103 -91 c107 -94 341 -284 421 -341 l46 -33
392 588 c216 323 394 594 396 603 2 9 -18 32 -54 60 -32 24 -108 86 -170 137
-61 51 -113 93 -115 93 -2 0 -232 -229 -511 -508z"/>
<path d="M9897 6198 c-30 -133 -539 -2719 -535 -2723 7 -7 300 -43 453 -54 77
-6 168 -14 203 -16 l62 -6 0 1400 0 1400 -57 6 c-32 3 -72 8 -89 11 -27 4 -33
1 -37 -18z"/>
<path d="M10865 6214 c-11 -2 -46 -6 -77 -9 l-58 -6 0 -686 0 -685 78 7 c91 7
366 37 369 39 2 1 -251 1277 -262 1324 -3 12 -11 21 -18 21 -6 -1 -21 -3 -32
-5z"/>
<path d="M8567 5128 c-2 -7 -417 -1007 -920 -2223 -504 -1215 -917 -2216 -919
-2224 -8 -36 785 -290 1230 -395 l102 -24 5 22 c27 115 935 4705 933 4715 -2
8 -19 19 -38 23 -37 9 -345 103 -372 113 -8 3 -18 0 -21 -7z"/>
<path d="M12170 5119 c-30 -11 -122 -40 -205 -64 -82 -23 -151 -47 -152 -52
-4 -10 272 -1392 279 -1399 12 -12 666 182 690 205 9 7 -535 1324 -548 1327
-5 1 -34 -6 -64 -17z"/>
<path d="M5845 3003 c-517 -775 -940 -1414 -940 -1422 0 -31 438 -282 870
-497 182 -90 336 -163 344 -162 10 2 1277 3037 1307 3130 4 14 -32 36 -183
112 -103 52 -244 127 -313 167 -69 39 -129 73 -135 75 -5 2 -433 -629 -950
-1403z"/>
<path d="M3900 3444 l-625 -625 55 -51 c122 -112 385 -340 506 -438 167 -137
505 -390 519 -390 10 1 978 1441 982 1463 1 6 -62 60 -140 119 -183 137 -370
290 -529 433 -70 63 -131 115 -135 115 -5 0 -289 -282 -633 -626z"/>
<path d="M16150 3959 c-169 -150 -377 -320 -542 -442 -75 -56 -137 -105 -137
-108 -2 -11 974 -1463 986 -1466 13 -5 341 241 538 402 148 121 367 311 470
408 l70 66 -625 625 c-344 344 -627 626 -630 626 -3 0 -61 -50 -130 -111z"/>
<path d="M11310 3465 c-47 -7 -173 -20 -280 -29 -107 -9 -219 -19 -247 -22
l-53 -5 0 -1705 0 -1705 118 6 c212 11 535 36 672 50 193 21 584 76 592 84 4
4 -141 752 -322 1664 -182 912 -330 1662 -330 1667 0 12 -41 11 -150 -5z"/>
<path d="M13190 2233 c-221 -76 -511 -163 -682 -204 -56 -13 -98 -28 -98 -35
0 -13 340 -1728 343 -1731 6 -5 489 123 677 181 292 88 634 206 652 224 7 7
-655 1621 -670 1633 -4 3 -104 -28 -222 -68z"/>
</g>
</svg>
